<?xml version="1.0" encoding="utf-8"?>
<?xml-stylesheet type="text/xsl" href="rss1.xsl"?>
<rss version="2.0" xmlns:atom="http://www.w3.org/2005/Atom" xmlns:content="http://purl.org/rss/1.0/modules/content/" xmlns:dc="http://purl.org/dc/elements/1.1/" xmlns:media="http://search.yahoo.com/mrss/">
<channel>
 <title>Getty</title>
 <link>http://www.gettyimg.com/</link>
 <atom:link href="http://www.gettyimg.com/" rel="self" type="application/rss+xml" />

 
                <item>
                <title><![CDATA[【General Music Discussion】How about a Mixtape forum?]]></title>
                <link><![CDATA[https://sharemania.us/threads/how-about-a-mixtape-forum.249247/]]></link>
                <description><![CDATA[<article>
<blockquote class="messageText SelectQuoteContainer ugc baseHtml">
I know there’s been some mixtape posts in the Albums forms. But how about having forums specifics for Mixtapes?
<div class="messageTextEndMarker">&nbsp;</div>
</blockquote>
</article>]]></description>
                <author><![CDATA[LuisTX]]></author>
                </item>

                
                <item>
                <title><![CDATA[【Albums (lossless)】ALAC - Kerli - Love Is Dead (Bonus Track Verison) [Apple Music Rip]]]></title>
                <link><![CDATA[https://sharemania.us/threads/kerli-love-is-dead-bonus-track-verison-apple-music-rip.249248/]]></link>
                <description><![CDATA[<article>
<blockquote class="messageText SelectQuoteContainer ugc baseHtml">
<div style="text-align: center"><img src="https://i.imgur.com/ZCTq8TD.jpeg" class="bbCodeImage LbImage" alt="[​IMG]" data-url="https://i.imgur.com/ZCTq8TD.jpeg" style=""><br>
<br>
<span style="font-family: 'Verdana'"><span style="font-size: 12px">1. Love Is Dead<br>
2. Walking on Air<br>
3. The Creationist<br>
4. I Want Nothing<br>
5. Up Up Up<br>
6. Bulletproof<br>
7. Beautiful Day<br>
8. Creepshow<br>
9. Hurt Me<br>
10. Butterfly Cry<br>
11. Strange Boy<br>
12. Fragile<br>
13. Heal <b><span style="color: #660000">*</span></b><br>
<br>
<span style="color: #660000"><b>* iTunes Bonus Track</b></span><br>
<br>
</span></span>
<div class="bbCodeBlock bbCodeVfcHH HiddenContent">
<div class="attribution type">Hidden Content:</div>
<blockquote>You must reply before you can see the hidden data contained here.</blockquote>
</div></div>
<div class="messageTextEndMarker">&nbsp;</div>
</blockquote>
</article>]]></description>
                <author><![CDATA[OhSnapItzTrey]]></author>
                </item>

                
                <item>
                <title><![CDATA[【UPSCALED】(G)-IDLE - Klaxon [RTX HDR10]]]></title>
                <link><![CDATA[https://sharemania.us/threads/g-idle-klaxon-rtx-hdr10.249249/]]></link>
                <description><![CDATA[<article>
<blockquote class="messageText SelectQuoteContainer ugc baseHtml">
<span style="font-size: 18px">Very energetic and funny to the ears. Shout out to </span><b><span style="font-size: 22px"><span style="color: #0000ff">(G)-IDLE<br>
</span></span></b><br>
<span style="font-size: 18px"><span style="color: #000000">Nice. Enjoy. Also you guys can request me to upscale your desire video to HDR, all i need is source<br>
</span></span><br>
<span style="color: #000000">
<div class="bbCodeBlock bbCodeVfcHH HiddenContent">
<div class="attribution type">Hidden Content:</div>
<blockquote>You must either reply or click 'Like' to see the hidden information contained here.</blockquote>
</div></span><br>
<span style="font-size: 18px"><span style="color: #000000">
<div class="bbCodeBlock bbCodeVfcHH HiddenContent">
<div class="attribution type">Hidden Content:</div>
<blockquote>You must reply before you can see the hidden data contained here.</blockquote>
</div></span></span>
<div class="messageTextEndMarker">&nbsp;</div>
</blockquote>
</article>]]></description>
                <author><![CDATA[ch3v4li3r]]></author>
                </item>

                
                <item>
                <title><![CDATA[【Apple Music】WEB-RiP - Cleo - WRRRA (1080p)]]></title>
                <link><![CDATA[https://sharemania.us/threads/cleo-wrrra-1080p.249246/]]></link>
                <description><![CDATA[<article>
<blockquote class="messageText SelectQuoteContainer ugc baseHtml">
<img src="https://i.postimg.cc/G3zBkG4J/Cleo-WRRRA-mp4.jpg" class="bbCodeImage LbImage" alt="[​IMG]" data-url="https://i.postimg.cc/G3zBkG4J/Cleo-WRRRA-mp4.jpg" style=""><br>
<br>
<div class="bbCodeBlock bbCodeCode">
<div class="type">Code:</div>
<pre>General
Complete name                  : G:\Новая папка\Cleo - WRRRA.mp4
Format                         : MPEG-4
Format profile                 : Base Media
Codec ID                       : isom (isom/iso2/avc1/mp41)
File size                      : 160 MiB
Duration                       : 3 min 23 s
Overall bit rate               : 6 593 kb/s
Frame rate                     : 25.000 FPS
Movie name                     : WRRRA
Performer                      : Cleo
Genre                          : Pop
ContentType                    : Music Video
Recorded date                  : 2019-02-07 08:00:00 UTC
Writing application            : Lavf56.30.100
Copyright                      : ℗ 2019 Universal Music Polska

Video
ID                             : 1
Format                         : AVC
Format/Info                    : Advanced Video Codec
Format profile                 : High@L4.1
Format settings                : CABAC / 4 Ref Frames
Format settings, CABAC         : Yes
Format settings, Reference fra : 4 frames
Format settings, Slice count   : 8 slices per frame
Codec ID                       : avc1
Codec ID/Info                  : Advanced Video Coding
Duration                       : 3 min 23 s
Bit rate                       : 6 334 kb/s
Width                          : 1 912 pixels
Height                         : 1 004 pixels
Display aspect ratio           : 1.904
Frame rate mode                : Constant
Frame rate                     : 25.000 FPS
Color space                    : YUV
Chroma subsampling             : 4:2:0
Bit depth                      : 8 bits
Scan type                      : Progressive
Bits/(Pixel*Frame)             : 0.132
Stream size                    : 154 MiB (96%)
Color range                    : Limited
Color primaries                : BT.709
Transfer characteristics       : BT.709
Matrix coefficients            : BT.709
Codec configuration box        : avcC

Audio
ID                             : 2
Format                         : AAC LC
Format/Info                    : Advanced Audio Codec Low Complexity
Codec ID                       : mp4a-40-2
Duration                       : 3 min 23 s
Duration_LastFrame             : -4 ms
Bit rate mode                  : Constant
Bit rate                       : 254 kb/s
Channel(s)                     : 2 channels
Channel layout                 : L R
Sampling rate                  : 48.0 kHz
Frame rate                     : 46.875 FPS (1024 SPF)
Compression mode               : Lossy
Stream size                    : 6.17 MiB (4%)
Default                        : Yes
Alternate group                : 1

</pre>
</div>
<div class="bbCodeBlock bbCodeVfcHH HiddenContent">
<div class="attribution type">Hidden Content:</div>
<blockquote>You must either reply or click 'Like' to see the hidden information contained here.</blockquote>
</div>
<div class="messageTextEndMarker">&nbsp;</div>
</blockquote>
</article>]]></description>
                <author><![CDATA[vitalya3]]></author>
                </item>

                
                <item>
                <title><![CDATA[【Apple Music】WEB-RiP - Delia - Du-te-ma (1080p)]]></title>
                <link><![CDATA[https://sharemania.us/threads/delia-du-te-ma-1080p.249250/]]></link>
                <description><![CDATA[<article>
<blockquote class="messageText SelectQuoteContainer ugc baseHtml">
<img src="https://i.postimg.cc/rs82gDYv/Delia-Du-te-ma-mp4.jpg" class="bbCodeImage LbImage" alt="[​IMG]" data-url="https://i.postimg.cc/rs82gDYv/Delia-Du-te-ma-mp4.jpg" style=""><br>
<br>
<div class="bbCodeBlock bbCodeCode">
<div class="type">Code:</div>
<pre>General
Complete name                  : G:\Новая папка\Delia - Du-te-ma.mp4
Format                         : MPEG-4
Format profile                 : Base Media
Codec ID                       : isom (isom/iso2/avc1/mp41)
File size                      : 186 MiB
Duration                       : 3 min 50 s
Overall bit rate               : 6 775 kb/s
Frame rate                     : 23.976 FPS
Movie name                     : Du-te-ma
Performer                      : Delia
Genre                          : Pop
ContentType                    : Music Video
Recorded date                  : 2021-09-10 07:00:00 UTC
Writing application            : Lavf56.30.100
Copyright                      : ℗ 2018 Cat Music / Global Records

Video
ID                             : 1
Format                         : AVC
Format/Info                    : Advanced Video Codec
Format profile                 : High@L4
Format settings                : CABAC / 5 Ref Frames
Format settings, CABAC         : Yes
Format settings, Reference fra : 5 frames
Format settings, Slice count   : 8 slices per frame
Codec ID                       : avc1
Codec ID/Info                  : Advanced Video Coding
Duration                       : 3 min 50 s
Bit rate                       : 6 506 kb/s
Width                          : 1 920 pixels
Height                         : 816 pixels
Display aspect ratio           : 2.35:1
Frame rate mode                : Constant
Frame rate                     : 23.976 (24000/1001) FPS
Color space                    : YUV
Chroma subsampling             : 4:2:0
Bit depth                      : 8 bits
Scan type                      : Progressive
Bits/(Pixel*Frame)             : 0.173
Stream size                    : 179 MiB (96%)
Color range                    : Limited
Color primaries                : BT.709
Transfer characteristics       : BT.709
Matrix coefficients            : BT.709
Codec configuration box        : avcC

Audio
ID                             : 2
Format                         : AAC LC
Format/Info                    : Advanced Audio Codec Low Complexity
Codec ID                       : mp4a-40-2
Duration                       : 3 min 50 s
Duration_LastFrame             : -20 ms
Bit rate mode                  : Constant
Bit rate                       : 265 kb/s
Channel(s)                     : 2 channels
Channel layout                 : L R
Sampling rate                  : 48.0 kHz
Frame rate                     : 46.875 FPS (1024 SPF)
Compression mode               : Lossy
Stream size                    : 7.31 MiB (4%)
Default                        : Yes
Alternate group                : 1

</pre>
</div>
<div class="bbCodeBlock bbCodeVfcHH HiddenContent">
<div class="attribution type">Hidden Content:</div>
<blockquote>You must either reply or click 'Like' to see the hidden information contained here.</blockquote>
</div>
<div class="messageTextEndMarker">&nbsp;</div>
</blockquote>
</article>]]></description>
                <author><![CDATA[vitalya3]]></author>
                </item>

                
                <item>
                <title><![CDATA[【Requests】[REQ VID] - Eminem ft. Big Sean &amp; Babytron - Tobey [Prores Master]]]></title>
                <link><![CDATA[https://sharemania.us/threads/eminem-ft-big-sean-babytron-tobey-prores-master.249251/]]></link>
                <description><![CDATA[<article>
<blockquote class="messageText SelectQuoteContainer ugc baseHtml">
Please let me know if someone is able to get it!<br>
I have a lot Eminem masters to trade!
<div class="messageTextEndMarker">&nbsp;</div>
</blockquote>
</article>]]></description>
                <author><![CDATA[misterm1986]]></author>
                </item>

                </channel></rss>